<?xml version="1.0" encoding="UTF-8" standalone="no"?>
<svg xmlns:rdf="http://www.w3.org/1999/02/22-rdf-syntax-ns#" xmlns="http://www.w3.org/2000/svg" height="224" width="224" version="1.1" xmlns:cc="http://creativecommons.org/ns#" xmlns:dc="http://purl.org/dc/elements/1.1/" viewBox="0 0 224 224">
 <g transform="translate(-.025075 -756.32)">
  <g transform="translate(-1656.8,774.32)">
   <g transform="translate(1191.7,-2310)">
    <path style="fill:#008000" d="m656.32 2324.8a112 112 0 0 1 0.0001 158.39 112 112 0 0 1 -158.39 0 112 112 0 0 1 0 -158.39 112 112 0 0 1 158.39 0.0001z"/>
    <path style="fill:#c6ff00;fill-opacity:.26667" d="m497.93 2483.2a112 112 0 0 0 50.322 28.874l136.97-136.97a112 112 0 0 0 -28.903 -50.293l-158.39 158.39z"/>
    <path style="fill:#64dd17;fill-opacity:.13333" d="m469.03 2432.9a112 112 0 0 0 28.903 50.29 112 112 0 0 0 0.001 0l158.39-158.39a112 112 0 0 0 -50.321 -28.873l-136.97 136.97z"/>
    <path style="fill:#c6ff00;fill-opacity:.26667" d="m474.52 2359.1a112 112 0 0 0 -5.5104 73.686l79.244 79.244 39.598-39.598-113.33-113.33z"/>
    <path style="fill:#64dd17;fill-opacity:.13333" d="m497.93 2324.8a112 112 0 0 0 -23.412 34.336l147.4 147.4a112 112 0 0 0 34.406 -23.342 112 112 0 0 0 32.204 -68.443l-122.18-122.1a112 112 0 0 0 -68.418 32.229z"/>
    <path style="fill-opacity:.31373" d="m548.25 2512.1a112 112 0 0 0 1.1131 0.3011l136.13-136.13a112 112 0 0 0 -0.2734 -1.1407l-136.97 136.97z"/>
    <path style="fill-opacity:.23529" d="m549.37 2512.4a112 112 0 0 0 1.1118 0.3024l135.29-135.29a112 112 0 0 0 -0.2749 -1.1394l-136.13 136.1z"/>
    <path style="fill-opacity:.15686" d="m550.48 2512.7a112 112 0 0 0 1.1131 0.3011l134.46-134.46a112 112 0 0 0 -0.2734 -1.1408l-135.3 135.3z"/>
    <path style="fill-opacity:.078431" d="m551.59 2513a112 112 0 0 0 1.1131 0.3011l133.62-133.62a112 112 0 0 0 -0.2735 -1.1408l-134.46 134.46z"/>
   </g>
  </g>
 </g>
</svg>
